# xmcd CD database file
#
# Track frame offsets:
#	150
#	40344
#	79497
#	125905
#	168619
#	192393
#	235722
#	278403
#
# Disc length: 4308 seconds
#
# Revision: 1
# Processed by: cddbd v1.5.2PL0 Copyright (c) Steve Scherf et al.
# Submitted via: CDex 1.70beta2
#
DISCID=6f10d208
DTITLE=手数セッション - TEKAZU SESSION
DYEAR=1900
DGENRE=Blues
TTITLE0=Subtropical Life
TTITLE1=Messa Boogie
TTITLE2=Otesuu okake shimasu
TTITLE3=tekazu prankish
TTITLE4=Tagawa Solo Time
TTITLE5=Kozo Solo Time
TTITLE6=Hojin Solo Time
TTITLE7=The Beat To Hit
EXTD=
EXTT0=
EXTT1=
EXTT2=
EXTT3=
EXTT4=
EXTT5=
EXTT6=
EXTT7=
PLAYORDER=
